<?xml version="1.0" encoding="utf-8"?>
<!-- Generator: Adobe Illustrator 25.2.0, SVG Export Plug-In . SVG Version: 6.00 Build 0)  -->
<svg version="1.1" id="Layer_1" xmlns="http://www.w3.org/2000/svg" xmlns:xlink="http://www.w3.org/1999/xlink" x="0px" y="0px"
	 viewBox="0 0 474 186" style="enable-background:new 0 0 474 186;" xml:space="preserve">
<style type="text/css">
	.st0{fill:#1E275E;}
</style>
<g>
	<g>
		<path class="st0" d="M200.23,95.23v23.19h-9.88v-5.01c-1.22,3.36-5.23,5.58-10.16,5.58c-7.01,0-11.81-4.65-11.81-10.81
			c0-7.09,5.3-11.38,13.17-11.38h6.08c1.79,0,2.72-1.14,2.72-2.65c0-3.01-2.36-5.08-6.44-5.08c-4.37,0-6.58,2.72-6.73,5.72h-8.88
			c0.43-7.23,6.3-13.03,16.18-13.03C193.58,81.78,200.23,87.07,200.23,95.23z M190.36,103.61v-0.5h-7.3c-3.01,0-5.15,1.86-5.15,4.65
			c0,2.36,2,4.01,4.79,4.01C187.57,111.77,190.36,108.19,190.36,103.61z"/>
		<path class="st0" d="M220.84,71.69v10.66h9.66v8.3h-9.66v14.24c0,3.51,1.86,5.15,5.08,5.15h4.58v8.37h-5.94
			c-8.3,0-13.67-4.72-13.67-13.1V90.65h-6.94v-8.3h6.94V71.69H220.84z"/>
		<path class="st0" d="M265.93,95.23v23.19h-9.88v-5.01c-1.22,3.36-5.23,5.58-10.16,5.58c-7.01,0-11.81-4.65-11.81-10.81
			c0-7.09,5.3-11.38,13.17-11.38h6.08c1.79,0,2.72-1.14,2.72-2.65c0-3.01-2.36-5.08-6.44-5.08c-4.37,0-6.58,2.72-6.73,5.72h-8.88
			c0.43-7.23,6.3-13.03,16.18-13.03C259.27,81.78,265.93,87.07,265.93,95.23z M256.05,103.61v-0.5h-7.3c-3.01,0-5.15,1.86-5.15,4.65
			c0,2.36,2,4.01,4.8,4.01C253.26,111.77,256.05,108.19,256.05,103.61z"/>
		<path class="st0" d="M270.86,99.81c0-10.52,7.44-18.61,18.61-18.61c9.45,0,7.69,0,7.69,0v8.56c0,0-3.75-0.04-7.4-0.04
			c-5.37,0-8.52,4.22-8.52,10.09c0,5.87,3.22,10.02,8.66,10.02c3.65,0,7.26-0.1,7.26-0.1v8.69c0,0,1.69,0-7.69,0
			C278.31,118.42,270.86,110.34,270.86,99.81z"/>
		<path class="st0" d="M304.44,66.68h9.95v51.75h-9.95V66.68z"/>
		<path class="st0" d="M320.4,100.39c0-10.73,7.95-18.61,19.04-18.61c11.09,0,19.04,7.87,19.04,18.61
			c0,10.74-7.94,18.61-19.04,18.61C328.35,119,320.4,111.12,320.4,100.39z M348.46,100.39c0-6.01-3.65-10.09-9.02-10.09
			c-5.37,0-9.02,4.08-9.02,10.09c0,5.94,3.65,10.02,9.02,10.02C344.81,110.41,348.46,106.33,348.46,100.39z"/>
		<path class="st0" d="M398.34,118.42h-10.02v-5.01c-2,3.44-6.01,5.58-10.95,5.58c-8.09,0-13.38-5.94-13.38-14.17V82.35h9.95v20.25
			c0,4.37,2.86,7.51,6.94,7.51c4.37,0,7.44-3.44,7.44-8.02V82.35h10.02V118.42z"/>
		<path class="st0" d="M403.77,100.39c0-11.24,6.44-18.61,16.89-18.61c4.51,0,8.02,1.72,10.02,4.37V66.68h9.95v51.75h-9.95v-3.94
			c-2,2.79-5.72,4.51-9.88,4.51C410.21,119,403.77,111.62,403.77,100.39z M431.25,100.39c0-6.08-3.51-10.09-8.8-10.09
			c-5.3,0-8.8,4.01-8.8,10.09c0,6.01,3.51,10.02,8.8,10.02C427.75,110.41,431.25,106.4,431.25,100.39z"/>
		<path class="st0" d="M124.36,92.87c0-16.89,11.74-25.62,25.12-25.62c12.6,0,13.2,0,13.2,0v9.17c0,0-6.9,0.07-13.2,0.07
			c-8.09,0-14.31,5.65-14.31,16.39s6.23,16.32,14.31,16.32c6.44,0,13.2,0.03,13.2,0.03v9.27c0,0-0.38,0-13.2,0
			C135.88,118.49,124.36,109.76,124.36,92.87z"/>
	</g>
</g>
<path class="st0" d="M99.15,64.36l-5.11,8.85H78.42c-0.84,0-1.62,0.45-2.04,1.18l-9.95,17.36c-0.4,0.69-0.4,1.54,0,2.23l9.89,17.41
	c0.42,0.74,1.2,1.19,2.05,1.19h15.71l5.08,8.78H74.48c-1.71,0-3.28-0.92-4.14-2.4L56.66,95.27c-0.86-1.49-0.86-3.32,0-4.8
	L70.5,66.76c0.86-1.47,2.43-2.37,4.14-2.37L99.15,64.36z"/>
<path class="st0" d="M110.4,44.84l-8.61,14.93H72.25c-2.37,0-4.56,1.27-5.73,3.32L51.12,89.98c-1.03,1.79-1.03,3.99-0.01,5.79
	l15.34,26.98c1.17,2.07,3.37,3.34,5.74,3.34h29.65l8.55,14.81H64.08c-2.87,0-5.53-1.53-6.97-4.02L34.05,96.92
	c-1.45-2.5-1.45-5.58,0-8.08l23.33-40.01c1.45-2.48,4.1-4,6.96-4H110.4z"/>
</svg>
