<?xml version="1.0" encoding="utf-8"?>
<!-- Generator: Adobe Illustrator 25.2.0, SVG Export Plug-In . SVG Version: 6.00 Build 0)  -->
<svg version="1.1" id="Layer_1" xmlns="http://www.w3.org/2000/svg" xmlns:xlink="http://www.w3.org/1999/xlink" x="0px" y="0px"
	 viewBox="0 0 474 186" style="enable-background:new 0 0 474 186;" xml:space="preserve">
<style type="text/css">
	.st0{fill:#1E275E;}
</style>

<path class="st0" d="M99.15,64.36l-5.11,8.85H78.42c-0.84,0-1.62,0.45-2.04,1.18l-9.95,17.36c-0.4,0.69-0.4,1.54,0,2.23l9.89,17.41
	c0.42,0.74,1.2,1.19,2.05,1.19h15.71l5.08,8.78H74.48c-1.71,0-3.28-0.92-4.14-2.4L56.66,95.27c-0.86-1.49-0.86-3.32,0-4.8
	L70.5,66.76c0.86-1.47,2.43-2.37,4.14-2.37L99.15,64.36z"/>
<path class="st0" d="M110.4,44.84l-8.61,14.93H72.25c-2.37,0-4.56,1.27-5.73,3.32L51.12,89.98c-1.03,1.79-1.03,3.99-0.01,5.79
	l15.34,26.98c1.17,2.07,3.37,3.34,5.74,3.34h29.65l8.55,14.81H64.08c-2.87,0-5.53-1.53-6.97-4.02L34.05,96.92
	c-1.45-2.5-1.45-5.58,0-8.08l23.33-40.01c1.45-2.48,4.1-4,6.96-4H110.4z"/>
</svg>
