<?xml version="1.0" encoding="utf-8"?>
<!-- Generator: Adobe Illustrator 27.0.1, SVG Export Plug-In . SVG Version: 6.00 Build 0)  -->
<svg version="1.1" id="Layer_1" xmlns="http://www.w3.org/2000/svg" xmlns:xlink="http://www.w3.org/1999/xlink" x="0px" y="0px"
	 viewBox="0 0 150 150" style="enable-background:new 0 0 150 150;" xml:space="preserve">
<style type="text/css">
	.st0{fill:#1E275E;}
</style>
<g>
	<path class="st0" d="M99.2,46.5L94,55.3H78.4c-0.8,0-1.6,0.4-2,1.2l-9.9,17.4c-0.4,0.7-0.4,1.5,0,2.2l9.9,17.4
		c0.4,0.7,1.2,1.2,2.1,1.2h15.7l5.1,8.8H74.5c-1.7,0-3.3-0.9-4.1-2.4L56.7,77.4c-0.9-1.5-0.9-3.3,0-4.8l13.8-23.7
		c0.9-1.5,2.4-2.4,4.1-2.4L99.2,46.5z"/>
	<path class="st0" d="M110.4,27l-8.6,14.9H72.2c-2.4,0-4.6,1.3-5.7,3.3L51.1,72.1c-1,1.8-1,4,0,5.8l15.3,27c1.2,2.1,3.4,3.3,5.7,3.3
		h29.7l8.6,14.8H64.1c-2.9,0-5.5-1.5-7-4L34,79.1c-1.5-2.5-1.5-5.6,0-8.1l23.3-40c1.5-2.5,4.1-4,7-4L110.4,27L110.4,27z"/>
</g>
</svg>
